<?xml version="1.0" encoding="UTF-8" standalone="no"?>
<!-- Created with Inkscape (http://www.inkscape.org/) -->

<svg
   width="78mm"
   height="78mm"
   viewBox="0 0 78 78"
   version="1.1"
   id="svg5"
   inkscape:version="1.1.1 (1:1.1+202109281949+c3084ef5ed)"
   sodipodi:docname="UnitedStates.svg"
   xmlns:inkscape="http://www.inkscape.org/namespaces/inkscape"
   xmlns:sodipodi="http://sodipodi.sourceforge.net/DTD/sodipodi-0.dtd"
   xmlns="http://www.w3.org/2000/svg"
   xmlns:svg="http://www.w3.org/2000/svg">
  <sodipodi:namedview
     id="namedview7"
     pagecolor="#ffffff"
     bordercolor="#666666"
     borderopacity="1.0"
     inkscape:pageshadow="2"
     inkscape:pageopacity="0.0"
     inkscape:pagecheckerboard="0"
     inkscape:document-units="mm"
     showgrid="false"
     width="10mm"
     inkscape:zoom="1"
     inkscape:cx="-89.5"
     inkscape:cy="55.5"
     inkscape:window-width="1920"
     inkscape:window-height="947"
     inkscape:window-x="0"
     inkscape:window-y="27"
     inkscape:window-maximized="1"
     inkscape:current-layer="layer1" />
  <defs
     id="defs2">
    <clipPath
       id="clip-1">
      <circle
         r="735"
         transform="matrix(0.03247592,0,0,0.03252448,67.733391,67.662048)"
         id="circle9"
         cx="0"
         cy="0" />
    </clipPath>
  </defs>
  <g
     inkscape:label="Layer 1"
     inkscape:groupmode="layer"
     id="layer1">
    <g
       id="g6851"
       transform="matrix(0.14917712,0,0,0.14917712,0.93309955,0.71148777)">
      <circle
         style="fill:#f0f0f0"
         cx="256"
         cy="256"
         r="256"
         id="circle6780" />
      <g
         id="g6790">
	<path
   style="fill:#d80027"
   d="M 244.87,256 H 512 c 0,-23.106 -3.08,-45.49 -8.819,-66.783 H 244.87 Z"
   id="path6782" />

	<path
   style="fill:#d80027"
   d="M 244.87,122.435 H 474.426 C 458.755,96.863 438.718,74.26 415.356,55.652 H 244.87 Z"
   id="path6784" />

	<path
   style="fill:#d80027"
   d="m 256,512 c 60.249,0 115.626,-20.824 159.356,-55.652 H 96.644 C 140.374,491.176 195.751,512 256,512 Z"
   id="path6786" />

	<path
   style="fill:#d80027"
   d="m 37.574,389.565 h 436.852 c 12.581,-20.529 22.338,-42.969 28.755,-66.783 H 8.819 c 6.417,23.814 16.174,46.254 28.755,66.783 z"
   id="path6788" />

</g>
      <path
         style="fill:#0052b4"
         d="m 118.584,39.978 h 23.329 l -21.7,15.765 8.289,25.509 -21.699,-15.765 -21.699,15.765 7.16,-22.037 C 73.158,75.13 56.412,93.776 42.612,114.552 h 7.475 l -13.813,10.035 c -2.152,3.59 -4.216,7.237 -6.194,10.938 l 6.596,20.301 -12.306,-8.941 c -3.059,6.481 -5.857,13.108 -8.372,19.873 l 7.267,22.368 h 26.822 l -21.7,15.765 8.289,25.509 -21.699,-15.765 -12.998,9.444 C 0.678,234.537 0,245.189 0,256 H 256 C 256,114.616 256,97.948 256,0 205.428,0 158.285,14.67 118.584,39.978 Z m 9.918,190.422 -21.699,-15.765 -21.699,15.765 8.289,-25.509 -21.7,-15.765 h 26.822 l 8.288,-25.509 8.288,25.509 h 26.822 l -21.7,15.765 z m -8.289,-100.083 8.289,25.509 -21.699,-15.765 -21.699,15.765 8.289,-25.509 -21.7,-15.765 h 26.822 l 8.288,-25.509 8.288,25.509 h 26.822 z M 220.328,230.4 198.629,214.635 176.93,230.4 l 8.289,-25.509 -21.7,-15.765 h 26.822 l 8.288,-25.509 8.288,25.509 h 26.822 l -21.7,15.765 z m -8.289,-100.083 8.289,25.509 -21.699,-15.765 -21.699,15.765 8.289,-25.509 -21.7,-15.765 h 26.822 l 8.288,-25.509 8.288,25.509 h 26.822 z m 0,-74.574 8.289,25.509 -21.699,-15.765 -21.699,15.765 8.289,-25.509 -21.7,-15.765 h 26.822 l 8.288,-25.509 8.288,25.509 h 26.822 z"
         id="path6792" />
      <g
         id="g6794">
</g>
      <g
         id="g6796">
</g>
      <g
         id="g6798">
</g>
      <g
         id="g6800">
</g>
      <g
         id="g6802">
</g>
      <g
         id="g6804">
</g>
      <g
         id="g6806">
</g>
      <g
         id="g6808">
</g>
      <g
         id="g6810">
</g>
      <g
         id="g6812">
</g>
      <g
         id="g6814">
</g>
      <g
         id="g6816">
</g>
      <g
         id="g6818">
</g>
      <g
         id="g6820">
</g>
      <g
         id="g6822">
</g>
    </g>
  </g>
</svg>
